<?xml version="1.0" encoding="UTF-8" standalone="no"?>
<svg
   xmlns:dc="http://purl.org/dc/elements/1.1/"
   xmlns:cc="http://creativecommons.org/ns#"
   xmlns:rdf="http://www.w3.org/1999/02/22-rdf-syntax-ns#"
   xmlns:svg="http://www.w3.org/2000/svg"
   xmlns="http://www.w3.org/2000/svg"
   xmlns:sodipodi="http://sodipodi.sourceforge.net/DTD/sodipodi-0.dtd"
   xmlns:inkscape="http://www.inkscape.org/namespaces/inkscape"
   inkscape:version="1.0beta2 (2b71d25, 2019-12-03)"
   sodipodi:docname="ohmyqsim_logo.svg"
   id="svg981"
   version="1.1"
   viewBox="0 0 325 300"
   height="300pt"
   width="325pt">
  <metadata
     id="metadata987">
    <rdf:RDF>
      <cc:Work
         rdf:about="">
        <dc:format>image/svg+xml</dc:format>
        <dc:type
           rdf:resource="http://purl.org/dc/dcmitype/StillImage" />
        <dc:title></dc:title>
      </cc:Work>
    </rdf:RDF>
  </metadata>
  <defs
     id="defs985" />
  <sodipodi:namedview
     inkscape:current-layer="layer2"
     inkscape:window-maximized="0"
     inkscape:window-y="29"
     inkscape:window-x="82"
     inkscape:cy="234.73833"
     inkscape:cx="223.83024"
     inkscape:zoom="1.4182101"
     showgrid="false"
     id="namedview983"
     inkscape:window-height="1085"
     inkscape:window-width="1749"
     inkscape:pageshadow="2"
     inkscape:pageopacity="0"
     guidetolerance="10"
     gridtolerance="10"
     objecttolerance="10"
     borderopacity="1"
     inkscape:document-rotation="0"
     bordercolor="#666666"
     pagecolor="#ffffff" />
  <g
     style="display:inline"
     sodipodi:insensitive="true"
     inkscape:label="Layer 1"
     id="layer1"
     inkscape:groupmode="layer">
    <g
       id="surface91">
      <path
         inkscape:connector-curvature="0"
         id="path974"
         d="m 150.89844,225 c 0,41.42187 -33.57813,75 -75.000002,75 -41.421876,0 -75,-33.57813 -75,-75 0,-41.42188 33.578124,-75 75,-75 41.421872,0 75.000002,33.57812 75.000002,75"
         style="fill:#ca3a33;fill-opacity:1;fill-rule:nonzero;stroke:none" />
      <path
         inkscape:connector-curvature="0"
         id="path976"
         d="m 237.5,75 c 0,41.42188 -33.57813,75 -75,75 -41.42187,0 -75,-33.57812 -75,-75 0,-41.421875 33.57813,-75 75,-75 41.42187,0 75,33.578125 75,75"
         style="fill:#389723;fill-opacity:1;fill-rule:nonzero;stroke:none" />
      <path
         inkscape:connector-curvature="0"
         id="path978"
         d="m 324.10156,225 c 0,41.42187 -33.57812,75 -75,75 -41.42187,0 -75,-33.57813 -75,-75 0,-41.42188 33.57813,-75 75,-75 41.42188,0 75,33.57812 75,75"
         style="fill:#9457b0;fill-opacity:1;fill-rule:nonzero;stroke:none" />
    </g>
  </g>
  <g
     style="display:inline"
     inkscape:label="Layer 2"
     id="layer2"
     inkscape:groupmode="layer">
    <g
       transform="matrix(0.00793305,0,0,-0.007761,121.38367,124.69461)"
       fill="#000000"
       stroke="none"
       id="g1730">
      <path
         inkscape:connector-curvature="0"
         d="m 6125,12741 c -387,-139 -597,-254 -908,-495 -233,-181 -331,-236 -422,-236 -17,0 -69,11 -115,24 -115,33 -387,82 -540,97 -236,22 -573,0 -849,-56 -161,-33 -227,-39 -285,-25 -32,7 -108,48 -220,117 -381,238 -783,418 -1165,522 l -74,20 7,-87 c 47,-605 193,-1137 396,-1443 l 40,-60 -25,-65 c -38,-101 -93,-307 -116,-439 -18,-97 -22,-161 -23,-330 0,-213 11,-317 49,-441 26,-86 51,-79 -277,-76 -331,4 -697,-10 -1025,-38 -215,-19 -564,-59 -572,-66 -2,-2 -1,-9 2,-17 4,-11 27,-10 138,4 476,63 1214,101 1600,84 l 167,-7 36,-87 c 20,-47 55,-121 80,-163 l 43,-77 -36,-5 c -20,-3 -92,-13 -161,-21 -513,-65 -1082,-183 -1506,-315 -194,-59 -234,-76 -234,-95 0,-8 1,-15 3,-15 2,0 57,18 122,40 266,90 566,168 900,234 276,55 413,76 891,141 l 41,6 58,-77 c 31,-42 88,-109 126,-149 l 69,-72 -118,-43 c -265,-97 -648,-277 -882,-415 -179,-105 -370,-235 -370,-251 0,-8 4,-14 9,-14 4,0 69,40 142,89 339,225 742,426 1156,577 l 93,33 93,-94 c 214,-215 287,-380 287,-652 0,-260 -53,-544 -204,-1093 -70,-254 -124,-480 -156,-652 -157,-835 -108,-1553 159,-2358 89,-266 155,-431 312,-782 274,-611 310,-727 354,-1146 22,-205 36,-683 33,-1072 l -3,-345 -88,-7 c -109,-8 -232,-32 -290,-57 -66,-28 -111,-73 -143,-143 -26,-56 -29,-74 -29,-158 0,-74 4,-103 19,-129 67,-123 257,-196 611,-235 1310,-143 2603,-163 3865,-61 684,56 1558,169 1680,218 349,141 670,737 925,1721 185,712 354,1713 371,2201 24,650 -166,1275 -569,1880 -207,310 -356,484 -807,940 -477,483 -631,662 -805,935 -143,224 -273,537 -311,747 -35,198 -28,460 18,673 47,221 145,445 262,601 203,269 554,486 916,565 66,15 125,19 260,18 157,0 185,-3 274,-27 228,-61 359,-160 386,-292 26,-124 -55,-283 -190,-373 -135,-91 -278,-109 -464,-59 -131,35 -183,41 -236,27 -75,-19 -115,-52 -150,-124 -30,-61 -32,-71 -28,-144 6,-97 36,-158 119,-238 71,-67 209,-135 321,-158 99,-20 253,-20 358,0 267,50 581,244 737,454 209,281 260,673 133,1013 -70,186 -311,431 -525,533 -206,98 -593,140 -925,99 -549,-68 -1041,-298 -1400,-654 -243,-242 -405,-492 -496,-769 l -37,-113 -56,6 c -135,13 -486,25 -753,25 -271,0 -289,1 -284,18 44,150 60,274 60,457 0,244 -33,410 -129,650 l -44,109 49,66 c 252,342 406,715 456,1103 22,176 12,628 -15,627 -3,-1 -78,-27 -166,-59 z m 709,-3021 c 88,-6 161,-11 162,-13 1,-1 -6,-42 -17,-92 -25,-119 -49,-305 -49,-377 0,-32 -3,-58 -6,-58 -3,0 -63,13 -132,29 -251,58 -593,119 -872,156 -69,9 -135,18 -147,21 -21,4 -20,8 32,117 29,61 61,138 71,169 18,53 21,57 54,62 57,7 732,-3 904,-14 z m -604,-436 c 173,-28 390,-71 666,-131 20,-5 21,-13 28,-166 27,-621 177,-1043 583,-1650 253,-378 580,-768 1023,-1222 273,-279 343,-357 438,-484 238,-315 387,-652 453,-1019 72,-406 36,-1045 -97,-1712 -160,-804 -476,-1596 -709,-1772 -91,-69 -196,-83 -285,-38 -126,65 -154,220 -111,605 12,105 37,318 56,475 62,523 75,690 75,955 0,641 -136,1169 -474,1844 -344,687 -592,1023 -1179,1597 -293,287 -426,407 -721,653 -143,120 -297,251 -340,292 -240,224 -359,512 -373,899 -4,114 -2,159 11,210 21,86 73,186 148,288 54,75 64,83 87,79 46,-10 341,-136 516,-222 207,-101 374,-196 564,-322 107,-71 146,-92 154,-84 8,8 8,14 2,19 -364,252 -809,488 -1172,621 -40,15 -60,27 -56,35 4,6 41,61 84,121 42,61 88,131 103,156 l 26,46 143,-19 c 78,-10 239,-34 357,-54 z"
         id="path1728" />
    </g>
    <g
       id="g3111"
       transform="matrix(0.99998144,0,0,0.99998144,154.43776,162.51936)">
      <g
         id="use3109"
         transform="matrix(0.74999999,0,0,0.74999999,87.667999,27.677)">
        <path
           inkscape:connector-curvature="0"
           d="m 22.109,-12.453 c 0,-5.328 -4.421,-9.656 -9.656,-9.656 -5.3749,0 -9.7186,4.421 -9.7186,9.656 0,5.2811 4.3437,9.6561 9.7186,9.6561 5.235,0 9.656,-4.3281 9.656,-9.6561 z"
           id="path3919" />
      </g>
    </g>
    <path
       style="fill:none;stroke:#000000;stroke-width:1.98975;stroke-linecap:round;stroke-linejoin:round;stroke-miterlimit:10;stroke-dasharray:none"
       inkscape:connector-curvature="0"
       id="path3113"
       d="m 251.67684,183.76143 v 62.7691" />
    <path
       style="fill:none;stroke:#000000;stroke-width:1.98975;stroke-linecap:round;stroke-linejoin:round;stroke-miterlimit:10;stroke-dasharray:none"
       inkscape:connector-curvature="0"
       id="path3115"
       d="M 246.22775,181.30777 H 198.21014" />
    <path
       style="fill:none;stroke:#000000;stroke-width:1.98975;stroke-linecap:round;stroke-linejoin:round;stroke-miterlimit:10;stroke-dasharray:none"
       inkscape:connector-curvature="0"
       id="path3117"
       d="M 299.80395,180.85627 H 258.68557" />
    <path
       style="fill:none;stroke:#000000;stroke-width:1.98996;stroke-linecap:round;stroke-linejoin:round;stroke-miterlimit:10"
       inkscape:connector-curvature="0"
       id="path3119"
       d="m 232.2562,266.66316 h 38.84728" />
    <path
       style="fill:none;stroke:#000000;stroke-width:1.98996;stroke-linecap:round;stroke-linejoin:round;stroke-miterlimit:10"
       inkscape:connector-curvature="0"
       id="path3121"
       d="M 251.67684,286.0828 V 247.23552" />
    <path
       style="fill:none;stroke:#000000;stroke-width:1.98996;stroke-linecap:round;stroke-linejoin:round;stroke-miterlimit:10"
       inkscape:connector-curvature="0"
       id="path3123"
       d="m 251.67684,246.73353 c -10.99179,0 -19.92163,8.92953 -19.92163,19.92163" />
    <path
       style="fill:none;stroke:#000000;stroke-width:1.98996;stroke-linecap:round;stroke-linejoin:round;stroke-miterlimit:10"
       inkscape:connector-curvature="0"
       id="path3125"
       d="m 231.75621,266.66316 c 0,10.99579 8.92954,19.92563 19.92163,19.92563" />
    <path
       style="fill:none;stroke:#000000;stroke-width:1.98996;stroke-linecap:round;stroke-linejoin:round;stroke-miterlimit:10"
       inkscape:connector-curvature="0"
       id="path3127"
       d="m 251.67684,286.58279 c 10.9958,0 19.92563,-8.92954 19.92563,-19.92563" />
    <path
       style="fill:none;stroke:#000000;stroke-width:1.98996;stroke-linecap:round;stroke-linejoin:round;stroke-miterlimit:10"
       inkscape:connector-curvature="0"
       id="path3129"
       d="m 271.60647,266.66316 c 0,-10.9918 -8.92953,-19.92163 -19.92563,-19.92163" />
    <path
       style="fill:none;stroke:#000000;stroke-width:1.98975;stroke-linecap:round;stroke-linejoin:round;stroke-miterlimit:10;stroke-dasharray:none"
       inkscape:connector-curvature="0"
       id="path3131"
       d="M 231.73092,266.66316 H 194.98458" />
    <path
       style="fill:none;stroke:#000000;stroke-width:1.98975;stroke-linecap:round;stroke-linejoin:round;stroke-miterlimit:10;stroke-dasharray:none"
       inkscape:connector-curvature="0"
       id="path3133"
       d="M 304.27482,266.66316 H 271.57599" />
    <g
       transform="matrix(1.8703492,0,0,2.2058413,12.804844,155.60602)"
       id="surface473701">
      <g
         style="fill:#000000;fill-opacity:1"
         id="g5206">
        <g
           transform="matrix(0.74999999,0,0,0.74999999,1.5957,41.671902)"
           id="use5204">
          <path
             id="path5823"
             d="m 8.546875,-38.40625 c 0,-0.96875 0,-1.9375 -1.0625,-1.9375 -1.078125,0 -1.078125,0.96875 -1.078125,1.9375 v 49.921875 c 0,0.96875 0,1.9375 1.078125,1.9375 1.0625,0 1.0625,-0.96875 1.0625,-1.9375 z m 0,0"
             style="stroke:none"
             inkscape:connector-curvature="0" />
        </g>
      </g>
      <g
         style="fill:#000000;fill-opacity:1"
         id="g5210">
        <g
           transform="matrix(0.74999999,0,0,0.74999999,16.542999,41.671902)"
           id="use5208">
          <path
             id="path5827"
             d="m 25.9375,-35.9375 c 0.04687,-0.21875 0.15625,-0.53125 0.15625,-0.8125 0,-0.53125 -0.375,-0.578125 -0.640625,-0.578125 -0.546875,0 -0.59375,0.09375 -0.8125,1.0625 l -8.9375,35.5625 c -4.078125,-0.484375 -6.125,-2.46875 -6.125,-6.015625 0,-1.078125 0,-2.484375 2.90625,-10.015625 0.21875,-0.640625 0.59375,-1.5625 0.59375,-2.625 0,-2.421875 -1.734375,-4.421875 -4.421875,-4.421875 -5.109375,0 -7.09375,7.796875 -7.09375,8.28125 0,0.546875 0.53125,0.546875 0.640625,0.546875 0.546875,0 0.59375,-0.109375 0.859375,-0.96875 1.453125,-5.109375 3.609375,-6.671875 5.4375,-6.671875 0.4375,0 1.34375,0 1.34375,1.71875 0,1.40625 -0.53125,2.75 -1.234375,4.625 -2.578125,6.78125 -2.578125,8.1875 -2.578125,9.09375 0,5.109375 4.1875,7.3125 9.359375,7.640625 -0.4375,1.9375 -0.4375,2.046875 -1.1875,4.890625 -0.15625,0.59375 -1.234375,4.953125 -1.234375,5.109375 0,0.0625 0,0.546875 0.640625,0.546875 0.109375,0 0.375,0 0.484375,-0.21875 C 14.25,10.703125 14.578125,9.359375 14.734375,8.609375 L 16.78125,0.59375 c 2,0 6.734375,0 11.78125,-5.765625 C 30.765625,-7.640625 31.90625,-10 32.5,-11.625 c 0.484375,-1.34375 1.65625,-6.015625 1.65625,-8.390625 0,-3.015625 -1.453125,-3.765625 -2.359375,-3.765625 -1.34375,0 -2.6875,1.40625 -2.6875,2.578125 0,0.703125 0.3125,1.03125 0.796875,1.453125 0.59375,0.59375 1.9375,2 1.9375,4.578125 0,3.4375 -2.796875,7.859375 -4.671875,9.796875 -4.734375,4.78125 -8.1875,4.78125 -10.125,4.78125 z m 0,0"
             style="stroke:none"
             inkscape:connector-curvature="0" />
        </g>
      </g>
      <g
         style="fill:#000000;fill-opacity:1"
         id="g5214">
        <g
           transform="matrix(0.74999999,0,0,0.74999999,53.516399,41.671902)"
           id="use5212">
          <path
             id="path5831"
             d="m 14.6875,-12.53125 c 0.265625,-0.65625 0.265625,-0.75 0.265625,-0.921875 0,-0.15625 0,-0.265625 -0.265625,-0.90625 l -9.421875,-24.75 C 4.953125,-40.03125 4.625,-40.34375 4.03125,-40.34375 c -0.59375,0 -1.078125,0.484375 -1.078125,1.078125 0,0.15625 0,0.265625 0.28125,0.859375 L 12.75,-13.453125 3.234375,11.40625 C 2.953125,12 2.953125,12.109375 2.953125,12.375 c 0,0.59375 0.484375,1.078125 1.078125,1.078125 0.703125,0 0.921875,-0.546875 1.140625,-1.078125 z m 0,0"
             style="stroke:none"
             inkscape:connector-curvature="0" />
        </g>
      </g>
    </g>
  </g>
</svg>
